# xmcd
#
# Track frame offsets:
#	150
#	5532
#	22266
#	41133
#	60951
#	79639
#	95571
#	110700
#	113402
#	132238
#	151805
#	171256
#	184033
#
# Disc length: 2492 seconds
# Revision: 1
# Processed by: cddbd v1.5.2PL0 Copyright (c) Steve Scherf et al.
# Submitted via: dBpowerAMP V12.0
#
DISCID=a009ba0d
DTITLE=Various Artist - Vivid
DYEAR=2015
DGENRE=R&B
TTITLE0=VivianSakiyyahGreen,Philadelphia,PA - Jordan's Intro
TTITLE1=VivianSakiyyahGreen,Philadelphia,PA - The One That Got Away
TTITLE2=VivianSakiyyahGreen,Philadelphia,PA - Work
TTITLE3=VivianSakiyyahGreen,Philadelphia,PA - Broken
TTITLE4=VivianSakiyyahGreen,Philadelphia,PA,featuringRaheem DeVaughn - All I Want Is You
TTITLE5=VivianSakiyyahGreen,Philadelphia,PA - Get Right Back To My Baby
TTITLE6=VivianSakiyyahGreen,Philadelphia,PA - 123
TTITLE7=VivianSakiyyahGreen,Philadelphia,PA - The Interlude (with Cayman Kelly)
TTITLE8=VivianSakiyyahGreen,Philadelphia,PA - Disrespectful
TTITLE9=VivianSakiyyahGreen,Philadelphia,PA - Just Like Fools
TTITLE10=VivianSakiyyahGreen,Philadelphia,PA,featuringTreena Ferebee - Count Your Blessings
TTITLE11=VivianSakiyyahGreen,Philadelphia,PA - Leave It All Behind
TTITLE12=VivianSakiyyahGreen,Philadelphia,PA - Outro
EXTD=
EXTT0=
EXTT1=
EXTT2=
EXTT3=
EXTT4=
EXTT5=
EXTT6=
EXTT7=
EXTT8=
EXTT9=
EXTT10=
EXTT11=
EXTT12=
PLAYORDER=
